<?xml version="1.0" encoding="UTF-8"?><svg id="a" xmlns="http://www.w3.org/2000/svg" viewBox="0 0 585.19 135.35"><defs><style>.b,.c{fill:#ec8b5e;}.c{fill-rule:evenodd;}</style></defs><path class="c" d="M67.68,0c10.1,0,19.68,2.22,28.29,6.18-.03,21.2-.16,46.36,.07,51.82,.24,3.69,2.27,6.91,4.62,9.65-2.55,2.92-4.6,6.47-4.68,10.44-.07,4.18-.06,28.2-.05,51.08-8.6,3.96-18.17,6.17-28.25,6.17s-19.66-2.21-28.25-6.17c.01-22.88,.02-46.9-.05-51.08-.07-3.97-2.13-7.52-4.68-10.44,2.35-2.74,4.37-5.96,4.62-9.65,.23-5.46,.1-30.62,.07-51.82C47.99,2.22,57.58,0,67.68,0h0Zm40.81,13.69c16.32,12.36,26.87,31.94,26.87,53.99s-10.54,41.62-26.85,53.97c0-19.31-.03-37.27-.03-40.64,.04-1.52-.08-3.32,1.23-4.39,2.63-2.37,6.37-2.44,9.7-2.76,0-4.13,0-8.26,0-12.38-3.72-.42-9-.4-10.71-4.45-.26-3.43-.24-24.63-.2-43.34h0ZM26.85,121.65C10.54,109.29,0,89.72,0,67.68S10.55,26.04,26.87,13.69c.04,18.71,.07,39.91-.2,43.34-1.71,4.05-6.99,4.03-10.71,4.45,0,4.12,0,8.25,0,12.38,3.32,.33,7.07,.39,9.7,2.76,1.31,1.07,1.19,2.87,1.23,4.39,0,3.37-.02,21.33-.03,40.64h0Zm21.65-47.68h38.36v-12.59H48.5v12.59Z"/><g><path class="b" d="M186.95,80.88v-17.25h-14.99v17.25h-8.04V42.45h8.04v14.47h14.99v-14.47h8.1v38.43h-8.1Z"/><path class="b" d="M216.58,80.88v-3.99c-1.93,3.16-4.88,4.75-8.85,4.75-1.43,0-2.73-.25-3.91-.75-1.18-.5-2.19-1.22-3.04-2.14-.85-.93-1.51-2.03-2-3.3-.48-1.27-.72-2.7-.72-4.28v-18.75h7.52v17.59c0,3.55,1.6,5.32,4.8,5.32,1.93,0,3.39-.61,4.37-1.82,.98-1.22,1.48-2.77,1.48-4.66v-16.44h7.47v28.48h-7.12Z"/><path class="b" d="M245.23,80.88v-17.25c0-2.2-.37-3.68-1.1-4.46-.73-.77-1.99-1.16-3.76-1.16-3.9,0-5.85,2.18-5.85,6.54v16.32h-7.52v-28.48h7.18v4.17c.89-1.62,2.06-2.85,3.53-3.68,1.47-.83,3.36-1.24,5.67-1.24,1.35,0,2.6,.2,3.76,.61,1.16,.41,2.15,1.01,2.98,1.82,.83,.81,1.48,1.8,1.97,2.98,.48,1.18,.72,2.54,.72,4.08v19.74h-7.58Z"/><path class="b" d="M272.26,62.13h7v8.1c0,1.5-.22,2.94-.67,4.31-.44,1.37-1.14,2.59-2.08,3.65-.95,1.06-2.14,1.9-3.59,2.52-1.45,.62-3.17,.93-5.18,.93s-3.86-.31-5.32-.93c-1.47-.62-2.67-1.45-3.62-2.49-.95-1.04-1.63-2.26-2.05-3.65-.43-1.39-.64-2.85-.64-4.4v-25.47h7.41v7.7h15.74v5.32h-15.74v11.69c0,1.81,.34,3.21,1.01,4.2,.67,.98,1.78,1.48,3.33,1.48s2.61-.48,3.33-1.45c.71-.96,1.07-2.33,1.07-4.11v-7.41Z"/><path class="b" d="M289.21,68.61c.12,2.16,.74,3.88,1.88,5.15,1.14,1.27,2.63,1.91,4.49,1.91,1.23,0,2.32-.28,3.27-.84s1.55-1.34,1.82-2.34h7.76c-.89,2.93-2.43,5.19-4.63,6.77-2.2,1.58-4.82,2.37-7.87,2.37-9.49,0-14.24-5.17-14.24-15.51,0-2.2,.31-4.19,.93-5.96,.62-1.77,1.51-3.3,2.69-4.57,1.18-1.27,2.61-2.25,4.31-2.92,1.7-.67,3.65-1.01,5.85-1.01,4.4,0,7.73,1.41,9.98,4.22,2.26,2.82,3.39,7.06,3.39,12.73h-19.62Zm11.86-4.75c-.04-1.04-.22-1.96-.55-2.75-.33-.79-.76-1.45-1.3-1.97-.54-.52-1.16-.91-1.85-1.16-.69-.25-1.41-.38-2.14-.38-1.5,0-2.81,.55-3.91,1.65-1.1,1.1-1.73,2.63-1.88,4.6h11.63Z"/><path class="b" d="M311.44,80.88v-28.48h7.06v3.41c.62-.96,1.26-1.72,1.94-2.26,.67-.54,1.37-.96,2.08-1.24,.71-.29,1.44-.47,2.17-.55,.73-.08,1.48-.12,2.26-.12h.98v7.7c-.7-.12-1.39-.17-2.08-.17-4.59,0-6.89,2.3-6.89,6.89v14.82h-7.52Z"/><path class="b" d="M373.08,80.88l-5.96-25-6.08,25h-7.52l-10.88-38.43h8.57l6.31,24.89,5.33-24.89h8.45l5.85,24.89,6.25-24.89h8.22l-10.77,38.43h-7.75Z"/><path class="b" d="M395.76,68.61c.12,2.16,.74,3.88,1.88,5.15,1.14,1.27,2.63,1.91,4.49,1.91,1.23,0,2.32-.28,3.27-.84s1.55-1.34,1.82-2.34h7.76c-.89,2.93-2.43,5.19-4.63,6.77-2.2,1.58-4.82,2.37-7.87,2.37-9.49,0-14.24-5.17-14.24-15.51,0-2.2,.31-4.19,.93-5.96,.62-1.77,1.51-3.3,2.69-4.57,1.18-1.27,2.61-2.25,4.31-2.92,1.7-.67,3.65-1.01,5.85-1.01,4.4,0,7.73,1.41,9.98,4.22,2.26,2.82,3.39,7.06,3.39,12.73h-19.62Zm11.86-4.75c-.04-1.04-.22-1.96-.55-2.75-.33-.79-.76-1.45-1.3-1.97-.54-.52-1.16-.91-1.85-1.16-.69-.25-1.41-.38-2.14-.38-1.5,0-2.81,.55-3.91,1.65-1.1,1.1-1.73,2.63-1.88,4.6h11.63Z"/><path class="b" d="M417.99,80.88V41.99h7.41v14.12c2.12-2.97,4.94-4.46,8.45-4.46,1.85,0,3.5,.36,4.95,1.07,1.45,.71,2.67,1.73,3.67,3.04,1,1.31,1.77,2.87,2.29,4.66,.52,1.79,.78,3.77,.78,5.93,0,2.39-.31,4.53-.93,6.42s-1.47,3.49-2.55,4.8c-1.08,1.31-2.38,2.31-3.91,3.01-1.52,.69-3.17,1.04-4.95,1.04-3.55,0-6.19-1.41-7.93-4.22l-.06,3.47h-7.23Zm13.49-5.38c1.89,0,3.43-.8,4.63-2.4,1.2-1.6,1.79-3.68,1.79-6.22,0-5.86-2.16-8.8-6.48-8.8s-6.31,3.09-6.31,9.26c0,2.43,.61,4.4,1.82,5.9,1.22,1.5,2.73,2.26,4.54,2.26Z"/><path class="b" d="M488.77,80.88l-2.43-7.93h-14.18l-2.72,7.93h-8.51l13.72-38.43h9.32l13.54,38.43h-8.74Zm-9.55-29.81h-.06l-4.92,15.28h9.78l-4.8-15.28Z"/><path class="b" d="M499.48,94.37V52.41h7.23l.06,3.47c1.74-2.82,4.38-4.22,7.93-4.22,1.77,0,3.42,.35,4.95,1.04,1.52,.69,2.83,1.7,3.91,3.01,1.08,1.31,1.93,2.91,2.55,4.8,.62,1.89,.93,4.03,.93,6.42,0,2.16-.26,4.14-.78,5.93-.52,1.79-1.28,3.35-2.29,4.66-1,1.31-2.23,2.32-3.67,3.04s-3.1,1.07-4.95,1.07c-3.51,0-6.33-1.48-8.45-4.46v17.19h-7.41Zm13.43-19.16c4.32,0,6.48-2.93,6.48-8.8,0-2.55-.6-4.62-1.79-6.22-1.2-1.6-2.74-2.4-4.63-2.4s-3.33,.75-4.54,2.26c-1.21,1.5-1.82,3.47-1.82,5.9,0,6.17,2.1,9.26,6.31,9.26Z"/><path class="b" d="M529.75,94.37V52.41h7.23l.06,3.47c1.74-2.82,4.38-4.22,7.93-4.22,1.77,0,3.42,.35,4.95,1.04,1.52,.69,2.83,1.7,3.91,3.01,1.08,1.31,1.93,2.91,2.55,4.8,.62,1.89,.93,4.03,.93,6.42,0,2.16-.26,4.14-.78,5.93-.52,1.79-1.28,3.35-2.29,4.66-1,1.31-2.23,2.32-3.67,3.04s-3.1,1.07-4.95,1.07c-3.51,0-6.33-1.48-8.45-4.46v17.19h-7.41Zm13.43-19.16c4.32,0,6.48-2.93,6.48-8.8,0-2.55-.6-4.62-1.79-6.22-1.2-1.6-2.74-2.4-4.63-2.4s-3.33,.75-4.54,2.26c-1.21,1.5-1.82,3.47-1.82,5.9,0,6.17,2.1,9.26,6.31,9.26Z"/><path class="b" d="M577.15,61.03c-.19-1.39-.7-2.36-1.5-2.92-.81-.56-2.08-.84-3.82-.84-1.43,0-2.53,.18-3.3,.55-.77,.37-1.16,.98-1.16,1.82s.38,1.5,1.16,1.94c.77,.44,1.93,.88,3.47,1.3,1.62,.46,3.16,.88,4.63,1.24,1.47,.37,2.76,.76,3.88,1.19,1.5,.62,2.66,1.46,3.47,2.52,.81,1.06,1.22,2.52,1.22,4.37,0,2.97-1.05,5.29-3.15,6.95-2.1,1.66-5.2,2.49-9.29,2.49-4.4,0-7.76-.93-10.1-2.78-2.34-1.85-3.54-4.23-3.62-7.12h7.76c0,1.35,.52,2.39,1.56,3.12,1.04,.73,2.49,1.1,4.34,1.1,1.35,0,2.53-.22,3.53-.67,1-.44,1.5-1.21,1.5-2.29,0-1-.45-1.72-1.36-2.14-.91-.42-1.98-.79-3.21-1.1-2.39-.58-4.32-1.1-5.79-1.56-1.47-.46-2.7-1.02-3.7-1.68-1.35-.85-2.29-1.81-2.81-2.89-.52-1.08-.78-2.26-.78-3.53,0-1.2,.21-2.31,.64-3.36,.42-1.04,1.12-1.94,2.08-2.69,.96-.75,2.21-1.34,3.73-1.77,1.52-.42,3.37-.64,5.53-.64,4.13,0,7.17,.79,9.12,2.37,1.95,1.58,3.02,3.92,3.21,7h-7.23Z"/></g></svg>